#!OML:ASF E:\emotionWalksFemale\Project 1\Capture day 1\Session 1\Female1.ASF
:FULLY-SPECIFIED
:DEGREES
1711
root 26.0344 15.3902 -32.2824 4.3116 17.8392 364.626
lowerback 7.6772 -1.33826 -2.38499
upperback -3.77368 -2.223 -2.16691
thorax -8.2998 -1.01889 -0.623585
lowerneck -6.59808 -6.71515 -9.62636
upperneck 12.7898 -9.68304 12.054
head 6.00269 -4.41971 4.64967
rclavicle 1.62693e-014 2.3059e-014
rhumerus -44.1322 16.1013 -93.4571
rradius 48.8897
rwrist 7.52116
rhand -3.56781 -51.0828
rfingers 7.12502
rthumb 22.1689 -439.832
lclavicle 1.62693e-014 2.3059e-014
lhumerus -49.377 2.26974 71.7162
lradius 37.9897
lwrist -15.8735
lhand -6.4805 -25.2564
lfingers 7.12502
lthumb 19.3704 3.79879
rfemur -3.088 25.14 33.4578
rtibia 19.1114
rfoot -12.1697 -21.2503
rtoes 27.214
lfemur -28.4289 -3.33411 -19.142
ltibia 52.2198
lfoot -15.3739 13.4944
ltoes -43.7467
1712
root 26.0889 15.4081 -32.2081 4.43057 16.4628 364.605
lowerback 7.68153 -1.21808 -2.16826
upperback -3.84462 -2.05756 -2.38486
thorax -8.39612 -0.956247 -0.999594
lowerneck -6.99791 -6.45856 -9.57059
upperneck 13.087 -9.37581 12.3098
head 6.13906 -4.23281 4.74372
rclavicle 3.92165e-014 2.5842e-014
rhumerus -44.1597 15.8737 -93.7503
rradius 49.2998
rwrist 7.24594
rhand -3.40853 -51.0544
rfingers 7.12502
rthumb 22.3218 -439.785
lclavicle 3.92165e-014 2.5842e-014
lhumerus -49.5045 1.94503 71.3061
lradius 37.5871
lwrist -16.3761
lhand -7.36648 -24.945
lfingers 7.12502
lthumb 18.5183 4.19359
rfemur -2.60431 25.3915 33.34
rtibia 18.7247
rfoot -13.1366 -20.4128
rtoes 25.1311
lfemur -28.7183 -3.25058 -19.1211
ltibia 50.5493
lfoot -16.2851 12.6971
ltoes -45.1924
1713
root 26.148 15.412 -32.1324 4.58918 15.1664 364.686
lowerback 7.41483 -1.16689 -2.24717
upperback -3.79673 -1.98567 -2.38793
thorax -8.18559 -0.919161 -0.974167
lowerneck -7.2125 -6.15069 -9.46304
upperneck 13.0154 -8.91916 12.1599
head 6.08874 -4.01067 4.71595
rclavicle 2.71093e-014 -2.80286e-014
rhumerus -44.184 16.4122 -94.0418
rradius 49.7642
rwrist 5.54277
rhand -4.17471 -50.5341
rfingers 7.12502
rthumb 21.5862 -439.351
lclavicle 2.71093e-014 -2.80286e-014
lhumerus -49.6473 2.20815 70.9151
lradius 37.2639
lwrist -17.5497
lhand -6.66504 -25.2364
lfingers 7.12502
lthumb 19.193 3.83651
rfemur -2.07863 25.7924 33.1048
rtibia 18.2384
rfoot -12.7423 -19.7681
rtoes 25.6211
lfemur -28.9823 -4.43812 -19.1702
ltibia 48.8591
lfoot -17.0532 13.8603
ltoes -46.2839
1714
root 26.201 15.4291 -32.0614 4.56453 14.0029 364.641
lowerback 7.25839 -1.29185 -2.51833
upperback -3.66377 -2.14529 -2.03217
thorax -7.92649 -0.975166 -0.42795
lowerneck -7.37055 -5.72602 -9.92178
upperneck 12.8328 -8.21565 11.9602
head 5.98853 -3.70359 4.78995
rclavicle -3.60887e-014 -1.78906e-014
rhumerus -44.0982 17.4982 -93.9074
rradius 50.3143
rwrist 4.92067
rhand -6.1014 -49.1878
rfingers 7.12502
rthumb 19.7349 -438.206
lclavicle -3.60887e-014 -1.78906e-014
lhumerus -49.7129 3.65672 70.5208
lradius 36.6473
lwrist -18.8443
lhand -5.91742 -25.8168
lfingers 7.12502
lthumb 19.9117 3.18317
rfemur -1.43136 25.722 33.0034
rtibia 17.6533
rfoot -12.6614 -18.5948
rtoes 24.9418
lfemur -29.1937 -4.75295 -19.1385
ltibia 47.1275
lfoot -17.6743 14.1113
ltoes -47.3903
1715
root 26.2563 15.4411 -31.9959 4.44611 12.8226 364.553
lowerback 7.74289 -1.24974 -2.43958
upperback -3.75821 -2.10169 -1.99473
thorax -8.31269 -0.952164 -0.427234
lowerneck -7.60269 -5.45011 -9.96651
upperneck 13.0854 -7.83681 11.973
head 6.06529 -3.51054 4.83455
rclavicle -7.19352e-015 -2.38542e-015
rhumerus -44.3638 17.6878 -94.0254
rradius 50.8933
rwrist 4.55812
rhand -5.74702 -49.8207
rfingers 7.12502
rthumb 20.0755 -438.804
lclavicle -7.19352e-015 -2.38542e-015
lhumerus -49.845 4.20631 70.0829
lradius 36.1768
lwrist -19.6927
lhand -5.67561 -25.6298
lfingers 7.12502
lthumb 20.1442 3.34576
rfemur -0.860667 25.2752 32.8817
rtibia 17.2064
rfoot -13.0117 -17.2497
rtoes 23.9619
lfemur -29.3315 -5.2517 -19.0676
ltibia 45.4454
lfoot -17.866 14.3191
ltoes -48.132
1716
root 26.3047 15.4472 -31.9148 4.33316 12.1332 364.527
lowerback 7.49314 -1.29769 -2.48081
upperback -3.54499 -2.15384 -2.00789
thorax -7.93545 -0.981131 -0.417396
lowerneck -7.83268 -5.18147 -9.9877
upperneck 13.2181 -7.47954 12.117
head 6.11086 -3.31974 4.91607
rclavicle 1.23215e-014 1.17283e-014
rhumerus -44.3398 17.6214 -94.0445
rradius 51.3873
rwrist 4.0986
rhand -5.44088 -50.3926
rfingers 7.12502
rthumb 20.3698 -439.344
lclavicle 1.23215e-014 1.17283e-014
lhumerus -49.8466 3.95292 69.9765
lradius 36.1923
lwrist -19.6088
lhand -5.48513 -25.2365
lfingers 7.12502
lthumb 20.3272 3.71971
rfemur -0.0485344 25.3141 32.9484
rtibia 16.6753
rfoot -13.1111 -17.1182
rtoes 23.513
lfemur -29.4032 -6.12756 -18.9885
ltibia 43.8324
lfoot -17.9697 14.6041
ltoes -49.6837
1717
root 26.3552 15.4506 -31.8387 4.36881 11.2376 364.475
lowerback 7.49264 -1.27461 -2.47414
upperback -3.62285 -2.12542 -2.00996
thorax -8.01964 -0.966566 -0.426854
lowerneck -7.97156 -5.04268 -9.59912
upperneck 13.4996 -7.27743 11.6096
head 6.16592 -3.22877 4.70321
rclavicle 1.7959e-014 -5.1684e-015
rhumerus -44.6145 17.4981 -94.0819
rradius 51.7978
rwrist 3.88829
rhand -5.37282 -50.3908
rfingers 7.12502
rthumb 20.4352 -439.335
lclavicle 1.7959e-014 -5.1684e-015
lhumerus -50.0275 4.53195 69.1445
lradius 35.8391
lwrist -20.4116
lhand -5.18763 -25.6651
lfingers 7.12502
lthumb 20.6131 3.26043
rfemur 0.553026 25.6382 32.934
rtibia 16.2062
rfoot -12.9985 -16.897
rtoes 23.1632
lfemur -29.6801 -6.90413 -18.8323
ltibia 42.3204
lfoot -18.4082 14.8163
ltoes -50.1451
1718
root 26.4046 15.4527 -31.7607 4.29677 10.4494 364.389
lowerback 7.4909 -1.24492 -2.4446
upperback -3.60484 -2.08152 -2.00321
thorax -8.00022 -0.946898 -0.442621
lowerneck -7.73679 -4.74739 -9.49419
upperneck 13.2864 -6.90153 11.721
head 6.01521 -3.04468 4.75976
rclavicle -2.09749e-014 7.7526e-015
rhumerus -44.6782 17.3276 -94.0015
rradius 52.1127
rwrist 3.7151
rhand -4.96304 -50.4287
rfingers 7.12502
rthumb 20.8289 -439.331
lclavicle -2.09749e-014 7.7526e-015
lhumerus -50.3753 3.75928 69.4282
lradius 36.3262
lwrist -19.6027
lhand -5.00689 -25.1192
lfingers 7.12502
lthumb 20.7868 3.78741
rfemur 1.23383 25.7361 33.0007
rtibia 15.7133
rfoot -12.5089 -16.527
rtoes 22.6517
lfemur -29.8151 -7.73475 -18.6024
ltibia 40.9087
lfoot -19.6999 14.0578
ltoes -45.6467
1719
root 26.452 15.4516 -31.6779 4.20861 9.71553 364.244
lowerback 7.46302 -1.16918 -2.33185
upperback -3.57473 -1.96682 -2.01549
thorax -7.95632 -0.89788 -0.535683
lowerneck -7.85033 -4.71593 -8.9371
upperneck 13.5984 -6.8548 11.0865
head 6.08608 -3.02931 4.46367
rclavicle -1.51045e-014 -4.57205e-015
rhumerus -44.8135 16.9398 -93.848
rradius 52.4415
rwrist 3.72947
rhand -5.20828 -50.0742
rfingers 7.12502
rthumb 20.5933 -439.002
lclavicle -1.51045e-014 -4.57205e-015
lhumerus -50.2953 3.87807 69.2497
lradius 36.2846
lwrist -19.9192
lhand -4.73397 -24.6323
lfingers 7.12502
lthumb 21.049 4.24528
rfemur 1.96536 25.9524 33.1906
rtibia 15.2108
rfoot -11.9314 -16.4039
rtoes 21.6975
lfemur -29.923 -8.51167 -18.356
ltibia 39.5746
lfoot -20.7074 13.5138
ltoes -41.6078
1720
root 26.5051 15.4613 -31.6005 4.35244 8.85075 364.103
lowerback 7.35197 -1.0724 -2.01469
upperback -3.62705 -1.80599 -2.08317
thorax -7.96031 -0.838137 -0.809424
lowerneck -7.5224 -4.52201 -8.80206
upperneck 13.1068 -6.59743 11.1487
head 5.84546 -2.91062 4.48618
rclavicle -1.36447e-014 1.45113e-014
rhumerus -44.9696 16.5934 -93.717
rradius 52.7741
rwrist 3.83759
rhand -6.13215 -49.299
rfingers 7.12502
rthumb 19.7053 -438.32
lclavicle -1.36447e-014 1.45113e-014
lhumerus -49.8339 4.99364 68.3389
lradius 35.4407
lwrist -21.2481
lhand -4.73399 -25.0617
lfingers 7.12502
lthumb 21.049 3.81597
rfemur 2.25897 25.1829 32.9398
rtibia 14.6587
rfoot -11.8742 -14.9253
rtoes 21.3987
lfemur -30.3806 -9.149 -18.1829
ltibia 38.2928
lfoot -21.165 13.8613
ltoes -39.4923
1721
root 26.5543 15.4616 -31.5152 4.29412 8.28043 363.997
lowerback 7.45611 -1.11904 -1.82702
upperback -3.65505 -1.85355 -2.08646
thorax -8.05706 -0.8708 -0.909467
lowerneck -8.02922 -4.42434 -8.74101
upperneck 13.6638 -6.45591 10.9662
head 6.08444 -2.82859 4.42543
rclavicle -1.27238e-014 -3.20043e-014
rhumerus -45.2152 16.5927 -93.7104
rradius 53.0961
rwrist 3.68536
rhand -6.40436 -49.0833
rfingers 7.12502
rthumb 19.4436 -438.131
lclavicle -1.27238e-014 -3.20043e-014
lhumerus -49.6449 6.22906 67.3975
lradius 34.787
lwrist -22.2818
lhand -4.99871 -25.8741
lfingers 7.12502
lthumb 20.7946 3.03156
rfemur 3.14958 25.813 33.1413
rtibia 13.9522
rfoot -11.4832 -14.8594
rtoes 22.2687
lfemur -30.5739 -9.981 -18.0157
ltibia 37.0877
lfoot -21.7207 14.0236
ltoes -36.6152
